<svg width="64" height="64" viewBox="0 0 64 64" fill="none" xmlns="http://www.w3.org/2000/svg">
<path fill-rule="evenodd" clip-rule="evenodd" d="M44.3752 40.348L46.3482 37.012H55.7622L58.6682 32L52.8522 22H44.6682L41.8402 17.04H38.6682V13.68H43.8402L46.6682 18.668H50.9062L45.0662 8.66797H33.6802V22H38.2932L40.2382 25.332H33.6802V32H39.7072L42.5072 27.012H50.0002L51.9222 30.348H44.4532L41.6532 35.332H33.6802V47.012H42.7462L40.8282 50.348H33.6802V55.332H45.0662L53.8122 40.348H48.2382L46.2932 43.68H38.6682V40.348H44.3752Z" fill="#4285F4"/>
<path fill-rule="evenodd" clip-rule="evenodd" d="M19.625 40.348L17.652 37.012H8.23803L5.33203 32L11.148 22H19.332L22.16 17.04H25.332V13.68H20.16L17.332 18.668H13.094L18.934 8.66797H30.348V22H25.707L23.762 25.332H30.348V32H24.293L21.493 27.012H14L12.078 30.348H19.547L22.347 35.332H30.347V47.012H21.254L23.172 50.348H30.348V55.332H18.934L10.187 40.348H15.762L17.707 43.68H25.332V40.348H19.625Z" fill="#669DF6"/>
</svg>
