<svg width="64" height="64" viewBox="0 0 64 64" fill="none" xmlns="http://www.w3.org/2000/svg">
<path d="M52.953 40C53.105 40 53.262 40.004 53.414 40.02L52.953 40C53.453 40 53.954 40.066 54.434 40.203C56.871 40.887 58.668 43.227 58.668 46C58.668 49.316 56.105 52 52.953 52C49.797 52 47.238 49.316 47.238 46C47.238 43.676 48.5 41.66 50.34 40.66L50.426 40.617C50.516 40.567 50.613 40.523 50.703 40.484L50.34 40.66C51.1433 40.228 52.0409 40.0012 52.953 40ZM11.047 40C11.215 40 11.375 40.008 11.535 40.02L11.047 40C11.907 40 12.75 40.203 13.516 40.586C15.437 41.559 16.762 43.617 16.762 46C16.762 49.316 14.203 52 11.047 52C7.89103 52 5.33203 49.316 5.33203 46C5.33203 43.02 7.40603 40.543 10.122 40.078C10.426 40.028 10.738 40 11.047 40ZM41.227 30C41.66 30.004 42.07 30.184 42.371 30.492C42.671 30.801 42.84 31.219 42.832 31.652C42.832 31.895 42.782 32.137 42.676 32.359L42.68 32.367L34.305 46.129C34.152 46.449 33.949 46.746 33.703 47.004C33.4083 47.3179 33.0525 47.5682 32.6575 47.7395C32.2625 47.9108 31.8366 47.9994 31.406 48C29.629 48 28.188 46.523 28.188 44.7C28.188 43.879 28.484 43.125 28.965 42.55L29.094 42.41L29.082 42.398L40.184 30.383C40.477 30.137 40.844 30.003 41.223 30H41.227ZM40.289 18C48.035 21.238 53.656 28.879 54.359 37.988C52.9929 37.7227 51.5796 37.8474 50.281 38.348C49.719 31.066 45.316 24.922 39.199 22.156C39.8123 21.08 40.1768 19.8803 40.266 18.645L40.289 18ZM24.781 17.512C24.6944 18.9763 24.9893 20.4379 25.637 21.754C19.031 24.27 14.187 30.652 13.582 38.297C12.275 37.8212 10.8605 37.7224 9.50003 38.012C10.191 28.906 15.809 21.25 23.55 17.988L24.21 17.723L24.781 17.512ZM32.527 12C35.434 12 37.836 14.277 38.199 17.227C38.195 17.223 38.195 17.223 38.199 17.227L38.223 17.512C38.25 17.836 38.25 18.16 38.223 18.484L38.243 18C38.243 18.54 38.172 19.078 38.039 19.602C37.8684 20.243 37.5952 20.8522 37.23 21.406C36.7246 22.1963 36.0296 22.8476 35.2082 23.3007C34.3868 23.7538 33.4651 23.9942 32.527 24C30.168 24 28.141 22.496 27.27 20.348C27.219 20.227 27.176 20.098 27.129 19.973C26.9179 19.3368 26.8121 18.6703 26.816 18C26.816 17.625 26.848 17.254 26.91 16.887C27.414 14.105 29.734 12 32.527 12Z" fill="#4285F4"/>
</svg>
