<svg width="64" height="64" viewBox="0 0 64 64" fill="none" xmlns="http://www.w3.org/2000/svg">
<path fill-rule="evenodd" clip-rule="evenodd" d="M51.867 49.2539C51.0754 49.2317 50.3249 48.8964 49.7802 48.3216C49.2354 47.7469 48.9408 46.9795 48.961 46.1879C48.983 45.3961 49.3181 44.6454 49.8929 44.1004C50.4677 43.5555 51.2352 43.2607 52.027 43.2809C52.8191 43.3024 53.5703 43.6375 54.1154 44.2126C54.6605 44.7877 54.955 45.5558 54.934 46.3479C54.9058 47.1377 54.5686 47.8847 53.9949 48.4283C53.4213 48.9718 52.6571 49.2683 51.867 49.2539ZM51.867 51.9219C53.1512 51.9464 54.4043 51.525 55.4127 50.7295C56.4212 49.934 57.1228 48.8135 57.398 47.5589C57.6727 46.3034 57.503 44.9915 56.918 43.8472C56.3329 42.7029 55.3686 41.7972 54.19 41.2849C53.0113 40.7725 51.6914 40.6853 50.4555 41.038C49.2197 41.3907 48.1446 42.1616 47.414 43.2189C46.6838 44.2759 46.343 45.5536 46.4499 46.8338C46.5568 48.1141 47.1046 49.3176 48 50.2389C48.5143 50.7551 49.1256 51.1647 49.7986 51.4441C50.4717 51.7234 51.1933 51.8671 51.922 51.8669L51.867 51.9219Z" fill="#4285F4"/>
<path d="M51.8951 11.547C50.8004 11.5451 49.7298 11.8688 48.8195 12.4768C47.9092 13.0848 47.2002 13.9498 46.7827 14.9618C46.3652 15.9738 46.258 17.0871 46.4748 18.1601C46.6916 19.2331 47.2225 20.2175 48.0001 20.988C48.5101 21.508 49.1212 21.918 49.7957 22.1929C50.4703 22.4677 51.1939 22.6015 51.9221 22.586C52.6818 22.6401 53.4445 22.5372 54.1627 22.2836C54.8809 22.03 55.5391 21.6313 56.0965 21.1122C56.6538 20.5931 57.0983 19.9648 57.4022 19.2665C57.7061 18.5681 57.863 17.8147 57.863 17.053C57.863 16.2914 57.7061 15.5379 57.4022 14.8396C57.0983 14.1412 56.6538 13.5129 56.0965 12.9938C55.5391 12.4748 54.8809 12.076 54.1627 11.8225C53.4445 11.5689 52.6818 11.466 51.9221 11.52L51.8951 11.547ZM54.0271 19.172C53.744 19.4521 53.4059 19.6703 53.0341 19.8129C52.6622 19.9554 52.2649 20.0191 51.8671 20C51.2833 19.9787 50.7189 19.7851 50.2449 19.4436C49.7709 19.1021 49.4085 18.628 49.2035 18.081C48.9984 17.5339 48.9598 16.9385 49.0926 16.3695C49.2253 15.8006 49.5234 15.2837 49.9493 14.8839C50.3753 14.484 50.91 14.2192 51.4861 14.1227C52.0623 14.0262 52.6542 14.1023 53.1871 14.3415C53.7201 14.5807 54.1704 14.9723 54.4813 15.4669C54.7921 15.9615 54.9497 16.537 54.9341 17.121C54.9025 17.8946 54.5783 18.6273 54.0271 19.171V19.172ZM42.3981 26.668H42.2661V29.199H42.4531C43.2251 29.2191 43.9587 29.5399 44.4976 30.093C45.0365 30.6461 45.3381 31.3878 45.3381 32.16C45.3381 32.9323 45.0365 33.674 44.4976 34.2271C43.9587 34.7802 43.2251 35.101 42.4531 35.121H42.2661V37.785H42.4531C43.4677 37.8562 44.4823 37.6468 45.3858 37.1798C46.2894 36.7128 47.047 36.0063 47.5758 35.1374C48.1046 34.2686 48.3841 33.2711 48.3838 32.254C48.3835 31.2369 48.1034 30.2395 47.5741 29.371C47.0458 28.5021 46.2887 27.7952 45.3858 27.3275C44.4828 26.8598 43.4686 26.6493 42.4541 26.719L42.3981 26.668ZM30.1881 5.33203C17.1481 5.33203 6.55811 10.668 6.55811 17.066C6.55811 23.465 17.2271 28.828 30.1881 28.828H30.4531V5.33203H30.1881Z" fill="#4285F4"/>
<path d="M30.1881 33.387C24.4316 33.5786 18.7086 32.4383 13.4651 30.055C12.0171 29.4761 10.6974 28.6174 9.58141 27.5282C8.46542 26.439 7.57502 25.1405 6.96108 23.707H6.55908V32C6.55908 38.48 17.2271 43.734 30.1881 43.734H30.4531V33.332L30.1881 33.387Z" fill="#4285F4"/>
<path d="M30.1881 48.266C24.4335 48.4681 18.7102 47.3369 13.4651 44.961C12.0171 44.3821 10.6974 43.5235 9.58141 42.4342C8.46542 41.345 7.57502 40.0465 6.96108 38.613H6.55908V46.933C6.55908 53.414 17.2271 58.668 30.1881 58.668H30.4531V48.266H30.1881Z" fill="#4285F4"/>
<path d="M36.375 5.33203H42.293V58.668H36.375V5.33203Z" fill="#669DF6"/>
</svg>
