<svg width="64" height="64" viewBox="0 0 64 64" fill="none" xmlns="http://www.w3.org/2000/svg">
<path d="M17.2812 25.652C17.1516 25.6612 17.0215 25.6448 16.8984 25.6036C16.7752 25.5624 16.6614 25.4973 16.5634 25.412C16.4655 25.3267 16.3854 25.2229 16.3277 25.1066C16.27 24.9902 16.2358 24.8636 16.2272 24.734C16.2102 24.4722 16.2975 24.2144 16.4701 24.0169C16.6427 23.8193 16.8865 23.6982 17.1482 23.68L23.2812 22.828C23.4107 22.809 23.5427 22.8161 23.6694 22.8489C23.7961 22.8817 23.915 22.9395 24.0191 23.0188C24.1231 23.0982 24.2103 23.1976 24.2754 23.3111C24.3405 23.4247 24.3822 23.5501 24.3982 23.68C24.4802 24.23 24.0982 24.746 23.5472 24.828L17.4142 25.652H17.2812ZM24.8012 24.782L25.4182 22.879L36.4732 26.484L35.8522 28.387L24.8012 24.782Z" fill="#4285F4"/>
<path d="M24.4801 24.426H24.1871C23.9408 24.3462 23.7357 24.1729 23.616 23.9434C23.4963 23.7139 23.4716 23.4466 23.5471 23.199L25.7621 15.625C25.8413 15.3787 26.0146 15.1737 26.2441 15.0544C26.4737 14.9351 26.741 14.9113 26.9881 14.988C27.1135 15.0186 27.2315 15.0743 27.335 15.1516C27.4384 15.2289 27.5252 15.3263 27.5901 15.438C27.6547 15.5505 27.696 15.675 27.7114 15.8038C27.7269 15.9327 27.7162 16.0633 27.6801 16.188L25.4401 23.68C25.3815 23.891 25.2564 24.0775 25.0835 24.2118C24.9106 24.3462 24.699 24.4213 24.4801 24.426ZM38.1601 28.16C37.9949 28.1616 37.832 28.1208 37.687 28.0415C37.542 27.9622 37.4198 27.847 37.3321 27.707C37.2326 27.552 37.1798 27.3717 37.1798 27.1875C37.1798 27.0033 37.2326 26.823 37.3321 26.668L41.7851 15.387C42.0231 14.934 42.5631 14.727 43.0391 14.907C43.5191 15.094 43.7811 15.609 43.6521 16.105L39.1721 27.415C39.0431 27.863 38.6291 28.168 38.1601 28.16ZM15.1211 44.277L25.6011 35.907L26.8481 37.469L16.3681 45.839L15.1211 44.277Z" fill="#4285F4"/>
<path d="M37.6521 28.5591L38.4261 26.7191L48.1331 30.9611L47.3321 32.7731L37.6521 28.5591ZM37.3091 38.9061L38.6911 37.4411L47.3091 45.5741L45.9221 47.0121L37.3091 38.9061ZM23.4341 24.3001L25.3941 23.9021L27.5471 34.5121L25.5901 34.9101L23.4341 24.3001Z" fill="#4285F4"/>
<path d="M26.5591 36.266L37.4921 26.668L38.8281 28.16L27.8951 37.762L26.5591 36.266Z" fill="#4285F4"/>
<path d="M36.668 37.922L37.308 27.332L39.308 27.465L38.641 38.055L36.668 37.922ZM30.32 36.852C30.3194 37.8142 29.9369 38.7369 29.2564 39.4172C28.5759 40.0975 27.6532 40.4798 26.691 40.48C25.9735 40.4798 25.2722 40.2669 24.6757 39.8682C24.0793 39.4695 23.6144 38.9028 23.3399 38.2399C23.0655 37.5771 22.9937 36.8477 23.1337 36.144C23.2737 35.4403 23.6193 34.794 24.1266 34.2866C24.6339 33.7793 25.2803 33.4338 25.9839 33.2938C26.6876 33.1538 27.417 33.2255 28.0799 33.5C28.7428 33.7745 29.3094 34.2393 29.7081 34.8358C30.1068 35.4323 30.3198 36.1346 30.32 36.852Z" fill="#4285F4"/>
<path d="M42.6128 27.625C42.6131 28.764 42.161 29.8565 41.356 30.6623C40.551 31.4681 39.4589 31.9212 38.3198 31.922C37.1968 31.8977 36.1279 31.4346 35.3422 30.6317C34.5565 29.8289 34.1165 28.7503 34.1165 27.627C34.1165 26.5036 34.5565 25.425 35.3422 24.6222C36.1279 23.8193 37.1968 23.3562 38.3198 23.332C39.4584 23.332 40.5504 23.7843 41.3555 24.5893C42.1605 25.3944 42.6128 26.4864 42.6128 27.625ZM40.5348 38.773C40.5348 39.0672 40.4768 39.3586 40.3641 39.6305C40.2514 39.9023 40.0862 40.1493 39.878 40.3572C39.6698 40.5652 39.4226 40.73 39.1506 40.8424C38.8786 40.9547 38.5871 41.0124 38.2928 41.012C37.0548 41.012 36.0548 40.012 36.0548 38.773C36.0548 37.535 37.0548 36.535 38.2928 36.535C39.5308 36.535 40.5348 37.535 40.5348 38.773ZM26.7458 23.121C26.7458 23.8213 26.4676 24.4929 25.9725 24.9881C25.4773 25.4833 24.8056 25.7615 24.1053 25.7615C23.405 25.7615 22.7334 25.4833 22.2382 24.9881C21.743 24.4929 21.4648 23.8213 21.4648 23.121C21.4648 22.4208 21.743 21.7493 22.2381 21.2542C22.7332 20.7591 23.4047 20.481 24.1048 20.481C25.5658 20.481 26.7458 21.661 26.7458 23.121Z" fill="#4285F4"/>
<path d="M34.668 8H29.332V18.668H34.668V8ZM45.332 8H40V18.668H45.332V8ZM24 8H18.668V18.668H24V8ZM34.668 45.332H29.332V56H34.668V45.332ZM45.332 45.332H40V56H45.332V45.332ZM24 45.332H18.668V56H24V45.332ZM18.668 29.332H8V34.668H18.668V29.332ZM18.668 18.668H8V24H18.668V18.668ZM18.668 40H8V45.332H18.668V40ZM56 29.332H45.332V34.668H56V29.332ZM56 18.668H45.332V24H56V18.668ZM56 40H45.332V45.332H56V40Z" fill="#669DF6"/>
<path d="M48 13.332H16C15.2925 13.3323 14.6141 13.6135 14.1138 14.1138C13.6135 14.6141 13.3323 15.2925 13.332 16V48C13.3323 48.7075 13.6135 49.386 14.1138 49.8863C14.6141 50.3866 15.2925 50.6678 16 50.668H48C48.7075 50.6678 49.386 50.3866 49.8863 49.8863C50.3866 49.386 50.6678 48.7075 50.668 48V16C50.6678 15.2925 50.3866 14.6141 49.8863 14.1138C49.386 13.6135 48.7075 13.3323 48 13.332ZM45.332 43.922C45.332 44.699 44.699 45.332 43.922 45.332H20.078C19.301 45.332 18.668 44.699 18.668 43.922V20.078C18.668 19.301 19.301 18.668 20.078 18.668H43.922C44.699 18.668 45.332 19.301 45.332 20.078V43.922Z" fill="#669DF6"/>
</svg>
